<?xml version="1.0" standalone="no"?>
<!DOCTYPE svg PUBLIC "-//W3C//DTD SVG 20010904//EN"
 "http://www.w3.org/TR/2001/REC-SVG-20010904/DTD/svg10.dtd">
<svg version="1.0" xmlns="http://www.w3.org/2000/svg"
 width="497.000000pt" height="439.000000pt" viewBox="0 0 497.000000 439.000000"
 preserveAspectRatio="xMidYMid meet">
<metadata>
Created by potrace 1.10, written by Peter Selinger 2001-2011
</metadata>
<g transform="translate(0.000000,439.000000) scale(0.100000,-0.100000)"
fill="#34626c" stroke="none">
<path d="M1205 4368 c-2 -7 -15 -49 -29 -93 -14 -44 -62 -201 -106 -350 -45
-148 -103 -342 -130 -430 -27 -88 -65 -214 -85 -280 -20 -66 -66 -217 -102
-335 -66 -215 -119 -391 -192 -635 -21 -71 -69 -229 -106 -350 -36 -121 -88
-292 -115 -380 -27 -88 -72 -236 -100 -330 -53 -176 -108 -355 -183 -605 l-44
-145 1295 -3 c713 -1 1299 1 1303 5 4 5 37 105 72 223 36 118 82 269 102 335
55 182 226 744 316 1043 93 308 212 699 296 977 25 83 78 258 118 390 l72 240
451 3 452 2 0 365 0 365 -1640 0 c-1304 0 -1641 -3 -1645 -12z m980 -753 c160
-14 323 -28 363 -32 47 -4 76 -11 79 -19 3 -7 -9 -55 -25 -106 -17 -51 -58
-183 -92 -293 -34 -110 -79 -254 -100 -320 l-38 -119 -234 -43 c-391 -72 -571
-103 -576 -98 -3 2 19 80 48 172 29 92 72 233 97 313 25 80 64 206 88 280 24
74 53 170 65 213 13 42 26 77 29 77 3 0 137 -11 296 -25z m-85 -1769 c0 -2
-20 -66 -44 -143 -38 -119 -153 -488 -175 -563 -8 -24 -11 -25 -92 -24 -99 1
-651 53 -661 63 -6 5 75 279 140 476 l17 50 230 43 c514 95 585 107 585 98z"/>
</g>
</svg>
