<svg width="734" height="309" viewBox="0 0 734 309" fill="none" xmlns="http://www.w3.org/2000/svg">
<g clip-path="url(#clip0_1_104)">
<rect width="734" height="309" rx="15" fill="white" fill-opacity="0.6"/>
<rect width="734" height="309" rx="15" fill="white" fill-opacity="0.6"/>
<rect x="630" y="130" width="40" height="145" rx="10" fill="#839B97"/>
<rect x="60" y="104" width="40" height="171" rx="10" fill="#839B97"/>
<rect x="676" y="109" width="40" height="166" rx="10" fill="#CFD3CE"/>
<rect x="220" y="122" width="40" height="153" rx="10" fill="#CFD3CE"/>
<rect x="288" y="79" width="40" height="196" rx="10" fill="#839B97"/>
<rect x="334" y="156" width="40" height="119" rx="10" fill="#CFD3CE"/>
<rect x="402" y="130" width="40" height="145" rx="10" fill="#839B97"/>
<rect x="448" y="173" width="40" height="102" rx="10" fill="#CFD3CE"/>
<rect x="516" y="59" width="40" height="216" rx="10" fill="#839B97"/>
<rect x="562" y="197" width="40" height="78" rx="10" fill="#CFD3CE"/>
<rect x="106" y="147" width="40" height="128" rx="10" fill="#CFD3CE"/>
<rect x="174" y="179" width="40" height="96" rx="10" fill="#839B97"/>
<path d="M17.2519 95.68C17.4439 95.68 17.6039 95.744 17.7319 95.872C17.8599 96 17.9239 96.16 17.9239 96.352C17.9239 96.536 17.8599 96.692 17.7319 96.82C17.6039 96.94 17.4439 97 17.2519 97H13.1719C12.9639 97 12.7999 96.936 12.6799 96.808C12.5599 96.68 12.4999 96.516 12.4999 96.316C12.4999 96.116 12.5719 95.94 12.7159 95.788L15.3319 92.992C15.6279 92.672 15.8599 92.344 16.0279 92.008C16.2039 91.672 16.2919 91.38 16.2919 91.132C16.2919 90.732 16.1759 90.412 15.9439 90.172C15.7119 89.924 15.4039 89.8 15.0199 89.8C14.8679 89.8 14.7119 89.836 14.5519 89.908C14.3919 89.98 14.2359 90.08 14.0839 90.208C13.9399 90.336 13.8039 90.484 13.6759 90.652C13.5799 90.78 13.4839 90.86 13.3879 90.892C13.2919 90.924 13.2039 90.94 13.1239 90.94C12.9479 90.94 12.7839 90.876 12.6319 90.748C12.4879 90.612 12.4159 90.456 12.4159 90.28C12.4159 90.144 12.4599 90.012 12.5479 89.884C12.6439 89.756 12.7599 89.624 12.8959 89.488C13.0959 89.288 13.3199 89.112 13.5679 88.96C13.8159 88.808 14.0719 88.692 14.3359 88.612C14.5999 88.524 14.8559 88.48 15.1039 88.48C15.6399 88.48 16.1039 88.588 16.4959 88.804C16.8959 89.012 17.2039 89.312 17.4199 89.704C17.6359 90.088 17.7439 90.544 17.7439 91.072C17.7439 91.512 17.6119 92.004 17.3479 92.548C17.0919 93.084 16.7439 93.588 16.3039 94.06L14.6839 95.788L14.5519 95.68H17.2519ZM21.4799 97.12C21.1839 97.12 20.8679 97.076 20.5319 96.988C20.1959 96.892 19.9199 96.756 19.7039 96.58C19.5999 96.492 19.5159 96.38 19.4519 96.244C19.3959 96.1 19.3679 95.964 19.3679 95.836C19.3679 95.7 19.4239 95.572 19.5359 95.452C19.6559 95.332 19.8239 95.272 20.0399 95.272C20.1839 95.272 20.3639 95.348 20.5799 95.5C20.7079 95.58 20.8479 95.652 20.9999 95.716C21.1519 95.78 21.3079 95.812 21.4679 95.812C21.8519 95.812 22.1839 95.744 22.4639 95.608C22.7439 95.464 22.9599 95.268 23.1119 95.02C23.2639 94.772 23.3399 94.48 23.3399 94.144C23.3399 93.84 23.2679 93.58 23.1239 93.364C22.9879 93.148 22.8039 92.98 22.5719 92.86C22.3479 92.74 22.1039 92.68 21.8399 92.68C21.5919 92.68 21.3759 92.72 21.1919 92.8C21.0079 92.88 20.8399 92.964 20.6879 93.052C20.5359 93.132 20.3839 93.172 20.2319 93.172C19.9679 93.172 19.7719 93.116 19.6439 93.004C19.5159 92.884 19.4359 92.744 19.4039 92.584C19.3719 92.424 19.3639 92.28 19.3799 92.152L19.7519 89.236C19.7839 89.068 19.8639 88.932 19.9919 88.828C20.1279 88.716 20.2879 88.66 20.4719 88.66H23.9399C24.1319 88.66 24.2919 88.724 24.4199 88.852C24.5479 88.98 24.6119 89.14 24.6119 89.332C24.6119 89.516 24.5479 89.672 24.4199 89.8C24.2919 89.92 24.1319 89.98 23.9399 89.98H20.8439L20.9759 89.872L20.6519 92.308L20.4959 91.852C20.5439 91.772 20.6479 91.696 20.8079 91.624C20.9679 91.552 21.1519 91.492 21.3599 91.444C21.5679 91.388 21.7719 91.36 21.9719 91.36C22.5079 91.36 22.9879 91.484 23.4119 91.732C23.8359 91.972 24.1679 92.304 24.4079 92.728C24.6559 93.144 24.7799 93.616 24.7799 94.144C24.7799 94.744 24.6439 95.268 24.3719 95.716C24.0999 96.164 23.7159 96.512 23.2199 96.76C22.7319 97 22.1519 97.12 21.4799 97.12ZM29.186 97.12C28.498 97.12 27.914 96.94 27.434 96.58C26.962 96.212 26.602 95.704 26.354 95.056C26.106 94.4 25.982 93.648 25.982 92.8C25.982 91.944 26.106 91.192 26.354 90.544C26.602 89.896 26.962 89.392 27.434 89.032C27.914 88.664 28.498 88.48 29.186 88.48C29.874 88.48 30.454 88.664 30.926 89.032C31.406 89.392 31.77 89.896 32.018 90.544C32.266 91.192 32.39 91.944 32.39 92.8C32.39 93.648 32.266 94.4 32.018 95.056C31.77 95.704 31.406 96.212 30.926 96.58C30.454 96.94 29.874 97.12 29.186 97.12ZM29.186 95.68C29.522 95.68 29.81 95.576 30.05 95.368C30.298 95.152 30.49 94.832 30.626 94.408C30.762 93.976 30.83 93.44 30.83 92.8C30.83 92.152 30.762 91.616 30.626 91.192C30.49 90.768 30.298 90.452 30.05 90.244C29.81 90.028 29.522 89.92 29.186 89.92C28.858 89.92 28.57 90.028 28.322 90.244C28.074 90.452 27.882 90.768 27.746 91.192C27.61 91.616 27.542 92.152 27.542 92.8C27.542 93.44 27.61 93.976 27.746 94.408C27.882 94.832 28.074 95.152 28.322 95.368C28.57 95.576 28.858 95.68 29.186 95.68ZM36.557 97.12C35.869 97.12 35.285 96.94 34.805 96.58C34.333 96.212 33.973 95.704 33.725 95.056C33.477 94.4 33.353 93.648 33.353 92.8C33.353 91.944 33.477 91.192 33.725 90.544C33.973 89.896 34.333 89.392 34.805 89.032C35.285 88.664 35.869 88.48 36.557 88.48C37.245 88.48 37.825 88.664 38.297 89.032C38.777 89.392 39.141 89.896 39.389 90.544C39.637 91.192 39.761 91.944 39.761 92.8C39.761 93.648 39.637 94.4 39.389 95.056C39.141 95.704 38.777 96.212 38.297 96.58C37.825 96.94 37.245 97.12 36.557 97.12ZM36.557 95.68C36.893 95.68 37.181 95.576 37.421 95.368C37.669 95.152 37.861 94.832 37.997 94.408C38.133 93.976 38.201 93.44 38.201 92.8C38.201 92.152 38.133 91.616 37.997 91.192C37.861 90.768 37.669 90.452 37.421 90.244C37.181 90.028 36.893 89.92 36.557 89.92C36.229 89.92 35.941 90.028 35.693 90.244C35.445 90.452 35.253 90.768 35.117 91.192C34.981 91.616 34.913 92.152 34.913 92.8C34.913 93.44 34.981 93.976 35.117 94.408C35.253 94.832 35.445 95.152 35.693 95.368C35.941 95.576 36.229 95.68 36.557 95.68Z" fill="#182025" fill-opacity="0.9"/>
<path d="M17.0233 131.68C17.2153 131.68 17.3753 131.744 17.5033 131.872C17.6313 132 17.6953 132.16 17.6953 132.352C17.6953 132.536 17.6313 132.692 17.5033 132.82C17.3753 132.94 17.2153 133 17.0233 133H12.9433C12.7353 133 12.5713 132.936 12.4513 132.808C12.3313 132.68 12.2713 132.516 12.2713 132.316C12.2713 132.116 12.3433 131.94 12.4873 131.788L15.1033 128.992C15.3993 128.672 15.6313 128.344 15.7993 128.008C15.9753 127.672 16.0633 127.38 16.0633 127.132C16.0633 126.732 15.9473 126.412 15.7153 126.172C15.4833 125.924 15.1753 125.8 14.7913 125.8C14.6393 125.8 14.4833 125.836 14.3233 125.908C14.1633 125.98 14.0073 126.08 13.8553 126.208C13.7113 126.336 13.5753 126.484 13.4473 126.652C13.3513 126.78 13.2553 126.86 13.1593 126.892C13.0633 126.924 12.9753 126.94 12.8953 126.94C12.7193 126.94 12.5553 126.876 12.4033 126.748C12.2593 126.612 12.1873 126.456 12.1873 126.28C12.1873 126.144 12.2313 126.012 12.3193 125.884C12.4153 125.756 12.5313 125.624 12.6673 125.488C12.8673 125.288 13.0913 125.112 13.3393 124.96C13.5873 124.808 13.8433 124.692 14.1073 124.612C14.3713 124.524 14.6273 124.48 14.8753 124.48C15.4113 124.48 15.8753 124.588 16.2673 124.804C16.6673 125.012 16.9753 125.312 17.1913 125.704C17.4073 126.088 17.5153 126.544 17.5153 127.072C17.5153 127.512 17.3833 128.004 17.1193 128.548C16.8633 129.084 16.5153 129.588 16.0753 130.06L14.4553 131.788L14.3233 131.68H17.0233ZM22.0434 133.12C21.3554 133.12 20.7714 132.94 20.2914 132.58C19.8194 132.212 19.4594 131.704 19.2114 131.056C18.9634 130.4 18.8394 129.648 18.8394 128.8C18.8394 127.944 18.9634 127.192 19.2114 126.544C19.4594 125.896 19.8194 125.392 20.2914 125.032C20.7714 124.664 21.3554 124.48 22.0434 124.48C22.7314 124.48 23.3114 124.664 23.7834 125.032C24.2634 125.392 24.6274 125.896 24.8754 126.544C25.1234 127.192 25.2474 127.944 25.2474 128.8C25.2474 129.648 25.1234 130.4 24.8754 131.056C24.6274 131.704 24.2634 132.212 23.7834 132.58C23.3114 132.94 22.7314 133.12 22.0434 133.12ZM22.0434 131.68C22.3794 131.68 22.6674 131.576 22.9074 131.368C23.1554 131.152 23.3474 130.832 23.4834 130.408C23.6194 129.976 23.6874 129.44 23.6874 128.8C23.6874 128.152 23.6194 127.616 23.4834 127.192C23.3474 126.768 23.1554 126.452 22.9074 126.244C22.6674 126.028 22.3794 125.92 22.0434 125.92C21.7154 125.92 21.4274 126.028 21.1794 126.244C20.9314 126.452 20.7394 126.768 20.6034 127.192C20.4674 127.616 20.3994 128.152 20.3994 128.8C20.3994 129.44 20.4674 129.976 20.6034 130.408C20.7394 130.832 20.9314 131.152 21.1794 131.368C21.4274 131.576 21.7154 131.68 22.0434 131.68ZM29.4145 133.12C28.7265 133.12 28.1425 132.94 27.6625 132.58C27.1905 132.212 26.8305 131.704 26.5825 131.056C26.3345 130.4 26.2105 129.648 26.2105 128.8C26.2105 127.944 26.3345 127.192 26.5825 126.544C26.8305 125.896 27.1905 125.392 27.6625 125.032C28.1425 124.664 28.7265 124.48 29.4145 124.48C30.1025 124.48 30.6825 124.664 31.1545 125.032C31.6345 125.392 31.9985 125.896 32.2465 126.544C32.4945 127.192 32.6185 127.944 32.6185 128.8C32.6185 129.648 32.4945 130.4 32.2465 131.056C31.9985 131.704 31.6345 132.212 31.1545 132.58C30.6825 132.94 30.1025 133.12 29.4145 133.12ZM29.4145 131.68C29.7505 131.68 30.0385 131.576 30.2785 131.368C30.5265 131.152 30.7185 130.832 30.8545 130.408C30.9905 129.976 31.0585 129.44 31.0585 128.8C31.0585 128.152 30.9905 127.616 30.8545 127.192C30.7185 126.768 30.5265 126.452 30.2785 126.244C30.0385 126.028 29.7505 125.92 29.4145 125.92C29.0865 125.92 28.7985 126.028 28.5505 126.244C28.3025 126.452 28.1105 126.768 27.9745 127.192C27.8385 127.616 27.7705 128.152 27.7705 128.8C27.7705 129.44 27.8385 129.976 27.9745 130.408C28.1105 130.832 28.3025 131.152 28.5505 131.368C28.7985 131.576 29.0865 131.68 29.4145 131.68ZM36.7856 133.12C36.0976 133.12 35.5136 132.94 35.0336 132.58C34.5616 132.212 34.2016 131.704 33.9536 131.056C33.7056 130.4 33.5816 129.648 33.5816 128.8C33.5816 127.944 33.7056 127.192 33.9536 126.544C34.2016 125.896 34.5616 125.392 35.0336 125.032C35.5136 124.664 36.0976 124.48 36.7856 124.48C37.4736 124.48 38.0536 124.664 38.5256 125.032C39.0056 125.392 39.3696 125.896 39.6176 126.544C39.8656 127.192 39.9896 127.944 39.9896 128.8C39.9896 129.648 39.8656 130.4 39.6176 131.056C39.3696 131.704 39.0056 132.212 38.5256 132.58C38.0536 132.94 37.4736 133.12 36.7856 133.12ZM36.7856 131.68C37.1216 131.68 37.4096 131.576 37.6496 131.368C37.8976 131.152 38.0896 130.832 38.2256 130.408C38.3616 129.976 38.4296 129.44 38.4296 128.8C38.4296 128.152 38.3616 127.616 38.2256 127.192C38.0896 126.768 37.8976 126.452 37.6496 126.244C37.4096 126.028 37.1216 125.92 36.7856 125.92C36.4576 125.92 36.1696 126.028 35.9216 126.244C35.6736 126.452 35.4816 126.768 35.3456 127.192C35.2096 127.616 35.1416 128.152 35.1416 128.8C35.1416 129.44 35.2096 129.976 35.3456 130.408C35.4816 130.832 35.6736 131.152 35.9216 131.368C36.1696 131.576 36.4576 131.68 36.7856 131.68Z" fill="#182025" fill-opacity="0.9"/>
<path d="M15.6958 169C15.4718 169 15.2878 168.932 15.1438 168.796C14.9998 168.652 14.9278 168.476 14.9278 168.268V162.22L15.0958 162.484L14.2198 163.132C14.1078 163.22 13.9678 163.264 13.7998 163.264C13.6078 163.264 13.4398 163.192 13.2958 163.048C13.1518 162.904 13.0798 162.732 13.0798 162.532C13.0798 162.276 13.2038 162.068 13.4518 161.908L15.1798 160.756C15.2598 160.7 15.3478 160.66 15.4438 160.636C15.5478 160.612 15.6438 160.6 15.7318 160.6C15.9638 160.6 16.1478 160.672 16.2838 160.816C16.4198 160.952 16.4878 161.124 16.4878 161.332V168.268C16.4878 168.476 16.4118 168.652 16.2598 168.796C16.1158 168.932 15.9278 169 15.6958 169ZM20.3959 169.12C20.0999 169.12 19.7839 169.076 19.4479 168.988C19.1119 168.892 18.8359 168.756 18.6199 168.58C18.5159 168.492 18.4319 168.38 18.3679 168.244C18.3119 168.1 18.2839 167.964 18.2839 167.836C18.2839 167.7 18.3399 167.572 18.4519 167.452C18.5719 167.332 18.7399 167.272 18.9559 167.272C19.0999 167.272 19.2799 167.348 19.4959 167.5C19.6239 167.58 19.7639 167.652 19.9159 167.716C20.0679 167.78 20.2239 167.812 20.3839 167.812C20.7679 167.812 21.0999 167.744 21.3799 167.608C21.6599 167.464 21.8759 167.268 22.0279 167.02C22.1799 166.772 22.2559 166.48 22.2559 166.144C22.2559 165.84 22.1839 165.58 22.0399 165.364C21.9039 165.148 21.7199 164.98 21.4879 164.86C21.2639 164.74 21.0199 164.68 20.7559 164.68C20.5079 164.68 20.2919 164.72 20.1079 164.8C19.9239 164.88 19.7559 164.964 19.6039 165.052C19.4519 165.132 19.2999 165.172 19.1479 165.172C18.8839 165.172 18.6879 165.116 18.5599 165.004C18.4319 164.884 18.3519 164.744 18.3199 164.584C18.2879 164.424 18.2799 164.28 18.2959 164.152L18.6679 161.236C18.6999 161.068 18.7799 160.932 18.9079 160.828C19.0439 160.716 19.2039 160.66 19.3879 160.66H22.8559C23.0479 160.66 23.2079 160.724 23.3359 160.852C23.4639 160.98 23.5279 161.14 23.5279 161.332C23.5279 161.516 23.4639 161.672 23.3359 161.8C23.2079 161.92 23.0479 161.98 22.8559 161.98H19.7599L19.8919 161.872L19.5679 164.308L19.4119 163.852C19.4599 163.772 19.5639 163.696 19.7239 163.624C19.8839 163.552 20.0679 163.492 20.2759 163.444C20.4839 163.388 20.6879 163.36 20.8879 163.36C21.4239 163.36 21.9039 163.484 22.3279 163.732C22.7519 163.972 23.0839 164.304 23.3239 164.728C23.5719 165.144 23.6959 165.616 23.6959 166.144C23.6959 166.744 23.5599 167.268 23.2879 167.716C23.0159 168.164 22.6319 168.512 22.1359 168.76C21.6479 169 21.0679 169.12 20.3959 169.12ZM28.102 169.12C27.414 169.12 26.83 168.94 26.35 168.58C25.878 168.212 25.518 167.704 25.27 167.056C25.022 166.4 24.898 165.648 24.898 164.8C24.898 163.944 25.022 163.192 25.27 162.544C25.518 161.896 25.878 161.392 26.35 161.032C26.83 160.664 27.414 160.48 28.102 160.48C28.79 160.48 29.37 160.664 29.842 161.032C30.322 161.392 30.686 161.896 30.934 162.544C31.182 163.192 31.306 163.944 31.306 164.8C31.306 165.648 31.182 166.4 30.934 167.056C30.686 167.704 30.322 168.212 29.842 168.58C29.37 168.94 28.79 169.12 28.102 169.12ZM28.102 167.68C28.438 167.68 28.726 167.576 28.966 167.368C29.214 167.152 29.406 166.832 29.542 166.408C29.678 165.976 29.746 165.44 29.746 164.8C29.746 164.152 29.678 163.616 29.542 163.192C29.406 162.768 29.214 162.452 28.966 162.244C28.726 162.028 28.438 161.92 28.102 161.92C27.774 161.92 27.486 162.028 27.238 162.244C26.99 162.452 26.798 162.768 26.662 163.192C26.526 163.616 26.458 164.152 26.458 164.8C26.458 165.44 26.526 165.976 26.662 166.408C26.798 166.832 26.99 167.152 27.238 167.368C27.486 167.576 27.774 167.68 28.102 167.68ZM35.4731 169.12C34.7851 169.12 34.2011 168.94 33.7211 168.58C33.2491 168.212 32.8891 167.704 32.6411 167.056C32.3931 166.4 32.2691 165.648 32.2691 164.8C32.2691 163.944 32.3931 163.192 32.6411 162.544C32.8891 161.896 33.2491 161.392 33.7211 161.032C34.2011 160.664 34.7851 160.48 35.4731 160.48C36.1611 160.48 36.7411 160.664 37.2131 161.032C37.6931 161.392 38.0571 161.896 38.3051 162.544C38.5531 163.192 38.6771 163.944 38.6771 164.8C38.6771 165.648 38.5531 166.4 38.3051 167.056C38.0571 167.704 37.6931 168.212 37.2131 168.58C36.7411 168.94 36.1611 169.12 35.4731 169.12ZM35.4731 167.68C35.8091 167.68 36.0971 167.576 36.3371 167.368C36.5851 167.152 36.7771 166.832 36.9131 166.408C37.0491 165.976 37.1171 165.44 37.1171 164.8C37.1171 164.152 37.0491 163.616 36.9131 163.192C36.7771 162.768 36.5851 162.452 36.3371 162.244C36.0971 162.028 35.8091 161.92 35.4731 161.92C35.1451 161.92 34.8571 162.028 34.6091 162.244C34.3611 162.452 34.1691 162.768 34.0331 163.192C33.8971 163.616 33.8291 164.152 33.8291 164.8C33.8291 165.44 33.8971 165.976 34.0331 166.408C34.1691 166.832 34.3611 167.152 34.6091 167.368C34.8571 167.576 35.1451 167.68 35.4731 167.68Z" fill="#182025" fill-opacity="0.9"/>
<path d="M15.4673 205C15.2433 205 15.0593 204.932 14.9153 204.796C14.7713 204.652 14.6993 204.476 14.6993 204.268V198.22L14.8673 198.484L13.9913 199.132C13.8793 199.22 13.7393 199.264 13.5713 199.264C13.3793 199.264 13.2113 199.192 13.0673 199.048C12.9233 198.904 12.8513 198.732 12.8513 198.532C12.8513 198.276 12.9753 198.068 13.2233 197.908L14.9513 196.756C15.0313 196.7 15.1193 196.66 15.2153 196.636C15.3193 196.612 15.4153 196.6 15.5033 196.6C15.7353 196.6 15.9193 196.672 16.0553 196.816C16.1913 196.952 16.2593 197.124 16.2593 197.332V204.268C16.2593 204.476 16.1833 204.652 16.0313 204.796C15.8873 204.932 15.6993 205 15.4673 205ZM20.9594 205.12C20.2714 205.12 19.6874 204.94 19.2074 204.58C18.7354 204.212 18.3754 203.704 18.1274 203.056C17.8794 202.4 17.7554 201.648 17.7554 200.8C17.7554 199.944 17.8794 199.192 18.1274 198.544C18.3754 197.896 18.7354 197.392 19.2074 197.032C19.6874 196.664 20.2714 196.48 20.9594 196.48C21.6474 196.48 22.2274 196.664 22.6994 197.032C23.1794 197.392 23.5434 197.896 23.7914 198.544C24.0394 199.192 24.1634 199.944 24.1634 200.8C24.1634 201.648 24.0394 202.4 23.7914 203.056C23.5434 203.704 23.1794 204.212 22.6994 204.58C22.2274 204.94 21.6474 205.12 20.9594 205.12ZM20.9594 203.68C21.2954 203.68 21.5834 203.576 21.8234 203.368C22.0714 203.152 22.2634 202.832 22.3994 202.408C22.5354 201.976 22.6034 201.44 22.6034 200.8C22.6034 200.152 22.5354 199.616 22.3994 199.192C22.2634 198.768 22.0714 198.452 21.8234 198.244C21.5834 198.028 21.2954 197.92 20.9594 197.92C20.6314 197.92 20.3434 198.028 20.0954 198.244C19.8474 198.452 19.6554 198.768 19.5194 199.192C19.3834 199.616 19.3154 200.152 19.3154 200.8C19.3154 201.44 19.3834 201.976 19.5194 202.408C19.6554 202.832 19.8474 203.152 20.0954 203.368C20.3434 203.576 20.6314 203.68 20.9594 203.68ZM28.3305 205.12C27.6425 205.12 27.0585 204.94 26.5785 204.58C26.1065 204.212 25.7465 203.704 25.4985 203.056C25.2505 202.4 25.1265 201.648 25.1265 200.8C25.1265 199.944 25.2505 199.192 25.4985 198.544C25.7465 197.896 26.1065 197.392 26.5785 197.032C27.0585 196.664 27.6425 196.48 28.3305 196.48C29.0185 196.48 29.5985 196.664 30.0705 197.032C30.5505 197.392 30.9145 197.896 31.1625 198.544C31.4105 199.192 31.5345 199.944 31.5345 200.8C31.5345 201.648 31.4105 202.4 31.1625 203.056C30.9145 203.704 30.5505 204.212 30.0705 204.58C29.5985 204.94 29.0185 205.12 28.3305 205.12ZM28.3305 203.68C28.6665 203.68 28.9545 203.576 29.1945 203.368C29.4425 203.152 29.6345 202.832 29.7705 202.408C29.9065 201.976 29.9745 201.44 29.9745 200.8C29.9745 200.152 29.9065 199.616 29.7705 199.192C29.6345 198.768 29.4425 198.452 29.1945 198.244C28.9545 198.028 28.6665 197.92 28.3305 197.92C28.0025 197.92 27.7145 198.028 27.4665 198.244C27.2185 198.452 27.0265 198.768 26.8905 199.192C26.7545 199.616 26.6865 200.152 26.6865 200.8C26.6865 201.44 26.7545 201.976 26.8905 202.408C27.0265 202.832 27.2185 203.152 27.4665 203.368C27.7145 203.576 28.0025 203.68 28.3305 203.68ZM35.7016 205.12C35.0136 205.12 34.4296 204.94 33.9496 204.58C33.4776 204.212 33.1176 203.704 32.8696 203.056C32.6216 202.4 32.4976 201.648 32.4976 200.8C32.4976 199.944 32.6216 199.192 32.8696 198.544C33.1176 197.896 33.4776 197.392 33.9496 197.032C34.4296 196.664 35.0136 196.48 35.7016 196.48C36.3896 196.48 36.9696 196.664 37.4416 197.032C37.9216 197.392 38.2856 197.896 38.5336 198.544C38.7816 199.192 38.9056 199.944 38.9056 200.8C38.9056 201.648 38.7816 202.4 38.5336 203.056C38.2856 203.704 37.9216 204.212 37.4416 204.58C36.9696 204.94 36.3896 205.12 35.7016 205.12ZM35.7016 203.68C36.0376 203.68 36.3256 203.576 36.5656 203.368C36.8136 203.152 37.0056 202.832 37.1416 202.408C37.2776 201.976 37.3456 201.44 37.3456 200.8C37.3456 200.152 37.2776 199.616 37.1416 199.192C37.0056 198.768 36.8136 198.452 36.5656 198.244C36.3256 198.028 36.0376 197.92 35.7016 197.92C35.3736 197.92 35.0856 198.028 34.8376 198.244C34.5896 198.452 34.3976 198.768 34.2616 199.192C34.1256 199.616 34.0576 200.152 34.0576 200.8C34.0576 201.44 34.1256 201.976 34.2616 202.408C34.3976 202.832 34.5896 203.152 34.8376 203.368C35.0856 203.576 35.3736 203.68 35.7016 203.68Z" fill="#182025" fill-opacity="0.9"/>
<path d="M18.0639 241.12C17.7679 241.12 17.4519 241.076 17.1159 240.988C16.7799 240.892 16.5039 240.756 16.2879 240.58C16.1839 240.492 16.0999 240.38 16.0359 240.244C15.9799 240.1 15.9519 239.964 15.9519 239.836C15.9519 239.7 16.0079 239.572 16.1199 239.452C16.2399 239.332 16.4079 239.272 16.6239 239.272C16.7679 239.272 16.9479 239.348 17.1639 239.5C17.2919 239.58 17.4319 239.652 17.5839 239.716C17.7359 239.78 17.8919 239.812 18.0519 239.812C18.4359 239.812 18.7679 239.744 19.0479 239.608C19.3279 239.464 19.5439 239.268 19.6959 239.02C19.8479 238.772 19.9239 238.48 19.9239 238.144C19.9239 237.84 19.8519 237.58 19.7079 237.364C19.5719 237.148 19.3879 236.98 19.1559 236.86C18.9319 236.74 18.6879 236.68 18.4239 236.68C18.1759 236.68 17.9599 236.72 17.7759 236.8C17.5919 236.88 17.4239 236.964 17.2719 237.052C17.1199 237.132 16.9679 237.172 16.8159 237.172C16.5519 237.172 16.3559 237.116 16.2279 237.004C16.0999 236.884 16.0199 236.744 15.9879 236.584C15.9559 236.424 15.9479 236.28 15.9639 236.152L16.3359 233.236C16.3679 233.068 16.4479 232.932 16.5759 232.828C16.7119 232.716 16.8719 232.66 17.0559 232.66H20.5239C20.7159 232.66 20.8759 232.724 21.0039 232.852C21.1319 232.98 21.1959 233.14 21.1959 233.332C21.1959 233.516 21.1319 233.672 21.0039 233.8C20.8759 233.92 20.7159 233.98 20.5239 233.98H17.4279L17.5599 233.872L17.2359 236.308L17.0799 235.852C17.1279 235.772 17.2319 235.696 17.3919 235.624C17.5519 235.552 17.7359 235.492 17.9439 235.444C18.1519 235.388 18.3559 235.36 18.5559 235.36C19.0919 235.36 19.5719 235.484 19.9959 235.732C20.4199 235.972 20.7519 236.304 20.9919 236.728C21.2399 237.144 21.3639 237.616 21.3639 238.144C21.3639 238.744 21.2279 239.268 20.9559 239.716C20.6839 240.164 20.2999 240.512 19.8039 240.76C19.3159 241 18.7359 241.12 18.0639 241.12ZM25.7699 241.12C25.0819 241.12 24.4979 240.94 24.0179 240.58C23.5459 240.212 23.1859 239.704 22.9379 239.056C22.6899 238.4 22.5659 237.648 22.5659 236.8C22.5659 235.944 22.6899 235.192 22.9379 234.544C23.1859 233.896 23.5459 233.392 24.0179 233.032C24.4979 232.664 25.0819 232.48 25.7699 232.48C26.4579 232.48 27.0379 232.664 27.5099 233.032C27.9899 233.392 28.3539 233.896 28.6019 234.544C28.8499 235.192 28.9739 235.944 28.9739 236.8C28.9739 237.648 28.8499 238.4 28.6019 239.056C28.3539 239.704 27.9899 240.212 27.5099 240.58C27.0379 240.94 26.4579 241.12 25.7699 241.12ZM25.7699 239.68C26.1059 239.68 26.3939 239.576 26.6339 239.368C26.8819 239.152 27.0739 238.832 27.2099 238.408C27.3459 237.976 27.4139 237.44 27.4139 236.8C27.4139 236.152 27.3459 235.616 27.2099 235.192C27.0739 234.768 26.8819 234.452 26.6339 234.244C26.3939 234.028 26.1059 233.92 25.7699 233.92C25.4419 233.92 25.1539 234.028 24.9059 234.244C24.6579 234.452 24.4659 234.768 24.3299 235.192C24.1939 235.616 24.1259 236.152 24.1259 236.8C24.1259 237.44 24.1939 237.976 24.3299 238.408C24.4659 238.832 24.6579 239.152 24.9059 239.368C25.1539 239.576 25.4419 239.68 25.7699 239.68ZM33.141 241.12C32.453 241.12 31.869 240.94 31.389 240.58C30.917 240.212 30.557 239.704 30.309 239.056C30.061 238.4 29.937 237.648 29.937 236.8C29.937 235.944 30.061 235.192 30.309 234.544C30.557 233.896 30.917 233.392 31.389 233.032C31.869 232.664 32.453 232.48 33.141 232.48C33.829 232.48 34.409 232.664 34.881 233.032C35.361 233.392 35.725 233.896 35.973 234.544C36.221 235.192 36.345 235.944 36.345 236.8C36.345 237.648 36.221 238.4 35.973 239.056C35.725 239.704 35.361 240.212 34.881 240.58C34.409 240.94 33.829 241.12 33.141 241.12ZM33.141 239.68C33.477 239.68 33.765 239.576 34.005 239.368C34.253 239.152 34.445 238.832 34.581 238.408C34.717 237.976 34.785 237.44 34.785 236.8C34.785 236.152 34.717 235.616 34.581 235.192C34.445 234.768 34.253 234.452 34.005 234.244C33.765 234.028 33.477 233.92 33.141 233.92C32.813 233.92 32.525 234.028 32.277 234.244C32.029 234.452 31.837 234.768 31.701 235.192C31.565 235.616 31.497 236.152 31.497 236.8C31.497 237.44 31.565 237.976 31.701 238.408C31.837 238.832 32.029 239.152 32.277 239.368C32.525 239.576 32.813 239.68 33.141 239.68Z" fill="#182025" fill-opacity="0.9"/>
<path d="M25.9985 277.12C25.3105 277.12 24.7265 276.94 24.2465 276.58C23.7745 276.212 23.4145 275.704 23.1665 275.056C22.9185 274.4 22.7945 273.648 22.7945 272.8C22.7945 271.944 22.9185 271.192 23.1665 270.544C23.4145 269.896 23.7745 269.392 24.2465 269.032C24.7265 268.664 25.3105 268.48 25.9985 268.48C26.6865 268.48 27.2665 268.664 27.7385 269.032C28.2185 269.392 28.5825 269.896 28.8305 270.544C29.0785 271.192 29.2025 271.944 29.2025 272.8C29.2025 273.648 29.0785 274.4 28.8305 275.056C28.5825 275.704 28.2185 276.212 27.7385 276.58C27.2665 276.94 26.6865 277.12 25.9985 277.12ZM25.9985 275.68C26.3345 275.68 26.6225 275.576 26.8625 275.368C27.1105 275.152 27.3025 274.832 27.4385 274.408C27.5745 273.976 27.6425 273.44 27.6425 272.8C27.6425 272.152 27.5745 271.616 27.4385 271.192C27.3025 270.768 27.1105 270.452 26.8625 270.244C26.6225 270.028 26.3345 269.92 25.9985 269.92C25.6705 269.92 25.3825 270.028 25.1345 270.244C24.8865 270.452 24.6945 270.768 24.5585 271.192C24.4225 271.616 24.3545 272.152 24.3545 272.8C24.3545 273.44 24.4225 273.976 24.5585 274.408C24.6945 274.832 24.8865 275.152 25.1345 275.368C25.3825 275.576 25.6705 275.68 25.9985 275.68Z" fill="#182025" fill-opacity="0.9"/>
<path d="M13.0647 59.308C13.1367 59.308 13.2127 59.32 13.2927 59.344C13.3807 59.368 13.4767 59.416 13.5807 59.488C13.7167 59.592 13.8767 59.684 14.0607 59.764C14.2527 59.844 14.4727 59.884 14.7207 59.884C14.9687 59.884 15.2007 59.824 15.4167 59.704C15.6407 59.576 15.8247 59.4 15.9687 59.176C16.1127 58.944 16.1847 58.668 16.1847 58.348C16.1847 58.044 16.1207 57.792 15.9927 57.592C15.8727 57.392 15.7087 57.24 15.5007 57.136C15.3007 57.032 15.0847 56.98 14.8527 56.98C14.6767 56.98 14.5287 56.996 14.4087 57.028C14.2967 57.06 14.1847 57.096 14.0727 57.136C13.9687 57.168 13.8447 57.184 13.7007 57.184C13.5167 57.184 13.3727 57.12 13.2687 56.992C13.1727 56.864 13.1247 56.712 13.1247 56.536C13.1247 56.424 13.1447 56.324 13.1847 56.236C13.2327 56.148 13.3007 56.052 13.3887 55.948L15.5007 53.704L15.8247 53.98H12.8727C12.6807 53.98 12.5207 53.916 12.3927 53.788C12.2647 53.66 12.2007 53.5 12.2007 53.308C12.2007 53.124 12.2647 52.972 12.3927 52.852C12.5207 52.724 12.6807 52.66 12.8727 52.66H16.5447C16.7927 52.66 16.9767 52.728 17.0967 52.864C17.2247 53 17.2887 53.172 17.2887 53.38C17.2887 53.484 17.2607 53.588 17.2047 53.692C17.1487 53.788 17.0807 53.876 17.0007 53.956L14.8767 56.236L14.5527 55.828C14.6407 55.788 14.7607 55.752 14.9127 55.72C15.0727 55.688 15.2047 55.672 15.3087 55.672C15.7807 55.672 16.1887 55.796 16.5327 56.044C16.8847 56.284 17.1527 56.6 17.3367 56.992C17.5287 57.376 17.6247 57.792 17.6247 58.24C17.6247 58.832 17.4927 59.344 17.2287 59.776C16.9647 60.208 16.5927 60.54 16.1127 60.772C15.6327 61.004 15.0727 61.12 14.4327 61.12C14.1367 61.12 13.8447 61.084 13.5567 61.012C13.2687 60.94 13.0207 60.844 12.8127 60.724C12.6367 60.628 12.5167 60.524 12.4527 60.412C12.3967 60.292 12.3687 60.18 12.3687 60.076C12.3687 59.892 12.4327 59.72 12.5607 59.56C12.6967 59.392 12.8647 59.308 13.0647 59.308ZM21.85 61.12C21.162 61.12 20.578 60.94 20.098 60.58C19.626 60.212 19.266 59.704 19.018 59.056C18.77 58.4 18.646 57.648 18.646 56.8C18.646 55.944 18.77 55.192 19.018 54.544C19.266 53.896 19.626 53.392 20.098 53.032C20.578 52.664 21.162 52.48 21.85 52.48C22.538 52.48 23.118 52.664 23.59 53.032C24.07 53.392 24.434 53.896 24.682 54.544C24.93 55.192 25.054 55.944 25.054 56.8C25.054 57.648 24.93 58.4 24.682 59.056C24.434 59.704 24.07 60.212 23.59 60.58C23.118 60.94 22.538 61.12 21.85 61.12ZM21.85 59.68C22.186 59.68 22.474 59.576 22.714 59.368C22.962 59.152 23.154 58.832 23.29 58.408C23.426 57.976 23.494 57.44 23.494 56.8C23.494 56.152 23.426 55.616 23.29 55.192C23.154 54.768 22.962 54.452 22.714 54.244C22.474 54.028 22.186 53.92 21.85 53.92C21.522 53.92 21.234 54.028 20.986 54.244C20.738 54.452 20.546 54.768 20.41 55.192C20.274 55.616 20.206 56.152 20.206 56.8C20.206 57.44 20.274 57.976 20.41 58.408C20.546 58.832 20.738 59.152 20.986 59.368C21.234 59.576 21.522 59.68 21.85 59.68ZM29.2211 61.12C28.5331 61.12 27.9491 60.94 27.4691 60.58C26.9971 60.212 26.6371 59.704 26.3891 59.056C26.1411 58.4 26.0171 57.648 26.0171 56.8C26.0171 55.944 26.1411 55.192 26.3891 54.544C26.6371 53.896 26.9971 53.392 27.4691 53.032C27.9491 52.664 28.5331 52.48 29.2211 52.48C29.9091 52.48 30.4891 52.664 30.9611 53.032C31.4411 53.392 31.8051 53.896 32.0531 54.544C32.3011 55.192 32.4251 55.944 32.4251 56.8C32.4251 57.648 32.3011 58.4 32.0531 59.056C31.8051 59.704 31.4411 60.212 30.9611 60.58C30.4891 60.94 29.9091 61.12 29.2211 61.12ZM29.2211 59.68C29.5571 59.68 29.8451 59.576 30.0851 59.368C30.3331 59.152 30.5251 58.832 30.6611 58.408C30.7971 57.976 30.8651 57.44 30.8651 56.8C30.8651 56.152 30.7971 55.616 30.6611 55.192C30.5251 54.768 30.3331 54.452 30.0851 54.244C29.8451 54.028 29.5571 53.92 29.2211 53.92C28.8931 53.92 28.6051 54.028 28.3571 54.244C28.1091 54.452 27.9171 54.768 27.7811 55.192C27.6451 55.616 27.5771 56.152 27.5771 56.8C27.5771 57.44 27.6451 57.976 27.7811 58.408C27.9171 58.832 28.1091 59.152 28.3571 59.368C28.6051 59.576 28.8931 59.68 29.2211 59.68ZM36.5922 61.12C35.9042 61.12 35.3202 60.94 34.8402 60.58C34.3682 60.212 34.0082 59.704 33.7602 59.056C33.5122 58.4 33.3882 57.648 33.3882 56.8C33.3882 55.944 33.5122 55.192 33.7602 54.544C34.0082 53.896 34.3682 53.392 34.8402 53.032C35.3202 52.664 35.9042 52.48 36.5922 52.48C37.2802 52.48 37.8602 52.664 38.3322 53.032C38.8122 53.392 39.1762 53.896 39.4242 54.544C39.6722 55.192 39.7962 55.944 39.7962 56.8C39.7962 57.648 39.6722 58.4 39.4242 59.056C39.1762 59.704 38.8122 60.212 38.3322 60.58C37.8602 60.94 37.2802 61.12 36.5922 61.12ZM36.5922 59.68C36.9282 59.68 37.2162 59.576 37.4562 59.368C37.7042 59.152 37.8962 58.832 38.0322 58.408C38.1682 57.976 38.2362 57.44 38.2362 56.8C38.2362 56.152 38.1682 55.616 38.0322 55.192C37.8962 54.768 37.7042 54.452 37.4562 54.244C37.2162 54.028 36.9282 53.92 36.5922 53.92C36.2642 53.92 35.9762 54.028 35.7282 54.244C35.4802 54.452 35.2882 54.768 35.1522 55.192C35.0162 55.616 34.9482 56.152 34.9482 56.8C34.9482 57.44 35.0162 57.976 35.1522 58.408C35.2882 58.832 35.4802 59.152 35.7282 59.368C35.9762 59.576 36.2642 59.68 36.5922 59.68Z" fill="#182025" fill-opacity="0.9"/>
<g clip-path="url(#clip1_1_104)">
<path d="M76.8091 294.12C76.3531 294.12 75.9291 294.028 75.5371 293.844C75.1451 293.66 74.8251 293.396 74.5771 293.052C74.4811 292.908 74.4331 292.768 74.4331 292.632C74.4331 292.432 74.5091 292.264 74.6611 292.128C74.8211 291.992 74.9771 291.924 75.1291 291.924C75.2491 291.924 75.3651 291.96 75.4771 292.032C75.5971 292.104 75.7051 292.188 75.8011 292.284C75.9611 292.428 76.1171 292.532 76.2691 292.596C76.4291 292.652 76.6091 292.68 76.8091 292.68C77.0491 292.68 77.2731 292.62 77.4811 292.5C77.6891 292.38 77.8571 292.22 77.9851 292.02C78.1131 291.82 78.1771 291.604 78.1771 291.372V286.332C78.1771 286.124 78.2531 285.952 78.4051 285.816C78.5571 285.672 78.7331 285.6 78.9331 285.6C79.1571 285.6 79.3371 285.672 79.4731 285.816C79.6091 285.952 79.6771 286.124 79.6771 286.332V291.372C79.6771 291.86 79.5491 292.312 79.2931 292.728C79.0371 293.144 78.6931 293.48 78.2611 293.736C77.8291 293.992 77.3451 294.12 76.8091 294.12ZM84.3824 287.484L81.7904 293.58C81.7344 293.732 81.6464 293.852 81.5264 293.94C81.4144 294.02 81.2904 294.06 81.1544 294.06C80.9384 294.06 80.7784 294 80.6744 293.88C80.5704 293.76 80.5184 293.612 80.5184 293.436C80.5184 293.364 80.5304 293.288 80.5544 293.208L83.5424 286.032C83.6064 285.872 83.7024 285.748 83.8304 285.66C83.9664 285.572 84.1104 285.536 84.2624 285.552C84.4064 285.552 84.5384 285.596 84.6584 285.684C84.7864 285.764 84.8784 285.88 84.9344 286.032L87.8864 293.064C87.9264 293.168 87.9464 293.264 87.9464 293.352C87.9464 293.568 87.8744 293.74 87.7304 293.868C87.5944 293.996 87.4424 294.06 87.2744 294.06C87.1304 294.06 86.9984 294.016 86.8784 293.928C86.7664 293.84 86.6784 293.72 86.6144 293.568L84.0344 287.556L84.3824 287.484ZM82.1624 292.116L82.8224 290.736H86.0624L86.2904 292.116H82.1624ZM95.3345 285.6C95.5265 285.6 95.6825 285.664 95.8025 285.792C95.9225 285.92 95.9825 286.08 95.9825 286.272V293.268C95.9825 293.476 95.9105 293.652 95.7665 293.796C95.6305 293.932 95.4585 294 95.2505 294C95.1465 294 95.0385 293.984 94.9265 293.952C94.8225 293.912 94.7425 293.86 94.6865 293.796L89.9705 287.808L90.2825 287.616V293.328C90.2825 293.52 90.2185 293.68 90.0905 293.808C89.9705 293.936 89.8105 294 89.6105 294C89.4185 294 89.2625 293.936 89.1425 293.808C89.0225 293.68 88.9625 293.52 88.9625 293.328V286.332C88.9625 286.124 89.0305 285.952 89.1665 285.816C89.3105 285.672 89.4865 285.6 89.6945 285.6C89.8065 285.6 89.9225 285.624 90.0425 285.672C90.1625 285.712 90.2505 285.776 90.3065 285.864L94.8785 291.696L94.6745 291.84V286.272C94.6745 286.08 94.7345 285.92 94.8545 285.792C94.9745 285.664 95.1345 285.6 95.3345 285.6ZM103.751 285.588C103.959 285.588 104.127 285.66 104.255 285.804C104.383 285.94 104.447 286.112 104.447 286.32V290.664C104.447 291.328 104.303 291.916 104.015 292.428C103.735 292.94 103.347 293.34 102.851 293.628C102.355 293.916 101.779 294.06 101.123 294.06C100.467 294.06 99.8867 293.916 99.3827 293.628C98.8867 293.34 98.4947 292.94 98.2067 292.428C97.9267 291.916 97.7867 291.328 97.7867 290.664V286.32C97.7867 286.112 97.8587 285.94 98.0027 285.804C98.1467 285.66 98.3307 285.588 98.5547 285.588C98.7387 285.588 98.9027 285.66 99.0467 285.804C99.1987 285.94 99.2747 286.112 99.2747 286.32V290.664C99.2747 291.064 99.3587 291.412 99.5267 291.708C99.7027 291.996 99.9307 292.22 100.211 292.38C100.499 292.54 100.803 292.62 101.123 292.62C101.467 292.62 101.787 292.54 102.083 292.38C102.379 292.22 102.619 291.996 102.803 291.708C102.987 291.412 103.079 291.064 103.079 290.664V286.32C103.079 286.112 103.139 285.94 103.259 285.804C103.379 285.66 103.543 285.588 103.751 285.588ZM109.214 287.484L106.622 293.58C106.566 293.732 106.478 293.852 106.358 293.94C106.246 294.02 106.122 294.06 105.986 294.06C105.77 294.06 105.61 294 105.506 293.88C105.402 293.76 105.35 293.612 105.35 293.436C105.35 293.364 105.362 293.288 105.386 293.208L108.374 286.032C108.438 285.872 108.534 285.748 108.662 285.66C108.798 285.572 108.942 285.536 109.094 285.552C109.238 285.552 109.37 285.596 109.49 285.684C109.618 285.764 109.71 285.88 109.766 286.032L112.718 293.064C112.758 293.168 112.778 293.264 112.778 293.352C112.778 293.568 112.706 293.74 112.562 293.868C112.426 293.996 112.274 294.06 112.106 294.06C111.962 294.06 111.83 294.016 111.71 293.928C111.598 293.84 111.51 293.72 111.446 293.568L108.866 287.556L109.214 287.484ZM106.994 292.116L107.654 290.736H110.894L111.122 292.116H106.994ZM114.659 294C114.435 294 114.235 293.932 114.059 293.796C113.883 293.652 113.795 293.476 113.795 293.268V286.332C113.795 286.124 113.863 285.952 113.999 285.816C114.143 285.672 114.319 285.6 114.527 285.6H117.983C118.399 285.6 118.787 285.712 119.147 285.936C119.515 286.152 119.811 286.456 120.035 286.848C120.259 287.232 120.371 287.676 120.371 288.18C120.371 288.484 120.307 288.78 120.179 289.068C120.059 289.356 119.891 289.616 119.675 289.848C119.467 290.08 119.231 290.26 118.967 290.388L118.979 290.112C119.203 290.232 119.387 290.376 119.531 290.544C119.683 290.704 119.799 290.88 119.879 291.072C119.967 291.256 120.019 291.456 120.035 291.672C120.067 291.872 120.087 292.048 120.095 292.2C120.111 292.352 120.135 292.48 120.167 292.584C120.207 292.688 120.279 292.768 120.383 292.824C120.559 292.928 120.667 293.08 120.707 293.28C120.755 293.472 120.711 293.644 120.575 293.796C120.487 293.9 120.375 293.968 120.239 294C120.103 294.024 119.967 294.024 119.831 294C119.695 293.968 119.583 293.928 119.495 293.88C119.359 293.8 119.223 293.684 119.087 293.532C118.951 293.372 118.839 293.16 118.751 292.896C118.671 292.632 118.631 292.292 118.631 291.876C118.631 291.74 118.607 291.616 118.559 291.504C118.511 291.384 118.443 291.284 118.355 291.204C118.267 291.116 118.155 291.052 118.019 291.012C117.883 290.964 117.723 290.94 117.539 290.94H115.115L115.295 290.664V293.268C115.295 293.476 115.239 293.652 115.127 293.796C115.015 293.932 114.859 294 114.659 294ZM115.127 289.704H117.923C118.067 289.704 118.207 289.64 118.343 289.512C118.479 289.376 118.591 289.196 118.679 288.972C118.767 288.74 118.811 288.488 118.811 288.216C118.811 287.864 118.715 287.572 118.523 287.34C118.339 287.1 118.139 286.98 117.923 286.98H115.151L115.295 286.596V289.992L115.127 289.704ZM127.15 285.564C127.334 285.564 127.498 285.636 127.642 285.78C127.794 285.916 127.87 286.092 127.87 286.308C127.87 286.38 127.858 286.456 127.834 286.536C127.818 286.608 127.786 286.68 127.738 286.752L125.014 290.652L125.23 289.824V293.268C125.23 293.476 125.158 293.652 125.014 293.796C124.878 293.932 124.718 294 124.534 294C124.334 294 124.162 293.932 124.018 293.796C123.882 293.652 123.814 293.476 123.814 293.268V289.92L123.91 290.304L121.318 286.86C121.238 286.756 121.182 286.656 121.15 286.56C121.118 286.464 121.102 286.376 121.102 286.296C121.102 286.08 121.186 285.904 121.354 285.768C121.522 285.632 121.694 285.564 121.87 285.564C122.094 285.564 122.29 285.676 122.458 285.9L124.762 289.08L124.426 289.032L126.55 285.924C126.718 285.684 126.918 285.564 127.15 285.564Z" fill="#182025" fill-opacity="0.9"/>
<path d="M187.252 294C187.028 294 186.844 293.932 186.7 293.796C186.564 293.652 186.496 293.476 186.496 293.268V286.332C186.496 286.124 186.564 285.952 186.7 285.816C186.844 285.672 187.02 285.6 187.228 285.6H191.128C191.336 285.6 191.508 285.668 191.644 285.804C191.788 285.932 191.86 286.1 191.86 286.308C191.86 286.484 191.788 286.64 191.644 286.776C191.508 286.912 191.336 286.98 191.128 286.98H187.888L187.996 286.836V289.248L187.912 289.092H190.588C190.796 289.092 190.968 289.16 191.104 289.296C191.248 289.424 191.32 289.592 191.32 289.8C191.32 289.976 191.248 290.132 191.104 290.268C190.968 290.404 190.796 290.472 190.588 290.472H187.888L187.996 290.364V293.268C187.996 293.476 187.92 293.652 187.768 293.796C187.624 293.932 187.452 294 187.252 294ZM193.966 285.6H197.986C198.194 285.6 198.366 285.668 198.502 285.804C198.646 285.932 198.718 286.1 198.718 286.308C198.718 286.508 198.646 286.672 198.502 286.8C198.366 286.92 198.194 286.98 197.986 286.98H194.626L194.734 286.776V289.116L194.638 289.02H197.446C197.654 289.02 197.826 289.088 197.962 289.224C198.106 289.352 198.178 289.52 198.178 289.728C198.178 289.928 198.106 290.092 197.962 290.22C197.826 290.34 197.654 290.4 197.446 290.4H194.674L194.734 290.304V292.728L194.638 292.62H197.986C198.194 292.62 198.366 292.692 198.502 292.836C198.646 292.972 198.718 293.132 198.718 293.316C198.718 293.516 198.646 293.68 198.502 293.808C198.366 293.936 198.194 294 197.986 294H193.966C193.758 294 193.582 293.932 193.438 293.796C193.302 293.652 193.234 293.476 193.234 293.268V286.332C193.234 286.124 193.302 285.952 193.438 285.816C193.582 285.672 193.758 285.6 193.966 285.6ZM203.857 285.6C204.625 285.6 205.197 285.78 205.573 286.14C205.949 286.5 206.137 287.032 206.137 287.736C206.137 288.112 206.045 288.444 205.861 288.732C205.677 289.012 205.405 289.232 205.045 289.392C204.685 289.544 204.241 289.62 203.713 289.62L203.761 289.08C204.009 289.08 204.293 289.116 204.613 289.188C204.933 289.252 205.241 289.372 205.537 289.548C205.841 289.716 206.089 289.956 206.281 290.268C206.481 290.572 206.581 290.964 206.581 291.444C206.581 291.972 206.493 292.404 206.317 292.74C206.149 293.076 205.925 293.336 205.645 293.52C205.365 293.704 205.065 293.832 204.745 293.904C204.425 293.968 204.117 294 203.821 294H200.833C200.625 294 200.449 293.932 200.305 293.796C200.169 293.652 200.101 293.476 200.101 293.268V286.332C200.101 286.124 200.169 285.952 200.305 285.816C200.449 285.672 200.625 285.6 200.833 285.6H203.857ZM203.641 287.016H201.505L201.661 286.824V288.996L201.517 288.888H203.677C203.909 288.888 204.117 288.812 204.301 288.66C204.485 288.508 204.577 288.288 204.577 288C204.577 287.656 204.489 287.408 204.313 287.256C204.145 287.096 203.921 287.016 203.641 287.016ZM203.737 290.304H201.553L201.661 290.208V292.74L201.541 292.62H203.821C204.189 292.62 204.481 292.524 204.697 292.332C204.913 292.132 205.021 291.836 205.021 291.444C205.021 291.084 204.949 290.824 204.805 290.664C204.661 290.504 204.489 290.404 204.289 290.364C204.089 290.324 203.905 290.304 203.737 290.304ZM208.828 294C208.604 294 208.404 293.932 208.228 293.796C208.052 293.652 207.964 293.476 207.964 293.268V286.332C207.964 286.124 208.032 285.952 208.168 285.816C208.312 285.672 208.488 285.6 208.696 285.6H212.152C212.568 285.6 212.956 285.712 213.316 285.936C213.684 286.152 213.98 286.456 214.204 286.848C214.428 287.232 214.54 287.676 214.54 288.18C214.54 288.484 214.476 288.78 214.348 289.068C214.228 289.356 214.06 289.616 213.844 289.848C213.636 290.08 213.4 290.26 213.136 290.388L213.148 290.112C213.372 290.232 213.556 290.376 213.7 290.544C213.852 290.704 213.968 290.88 214.048 291.072C214.136 291.256 214.188 291.456 214.204 291.672C214.236 291.872 214.256 292.048 214.264 292.2C214.28 292.352 214.304 292.48 214.336 292.584C214.376 292.688 214.448 292.768 214.552 292.824C214.728 292.928 214.836 293.08 214.876 293.28C214.924 293.472 214.88 293.644 214.744 293.796C214.656 293.9 214.544 293.968 214.408 294C214.272 294.024 214.136 294.024 214 294C213.864 293.968 213.752 293.928 213.664 293.88C213.528 293.8 213.392 293.684 213.256 293.532C213.12 293.372 213.008 293.16 212.92 292.896C212.84 292.632 212.8 292.292 212.8 291.876C212.8 291.74 212.776 291.616 212.728 291.504C212.68 291.384 212.612 291.284 212.524 291.204C212.436 291.116 212.324 291.052 212.188 291.012C212.052 290.964 211.892 290.94 211.708 290.94H209.284L209.464 290.664V293.268C209.464 293.476 209.408 293.652 209.296 293.796C209.184 293.932 209.028 294 208.828 294ZM209.296 289.704H212.092C212.236 289.704 212.376 289.64 212.512 289.512C212.648 289.376 212.76 289.196 212.848 288.972C212.936 288.74 212.98 288.488 212.98 288.216C212.98 287.864 212.884 287.572 212.692 287.34C212.508 287.1 212.308 286.98 212.092 286.98H209.32L209.464 286.596V289.992L209.296 289.704ZM222.108 285.588C222.316 285.588 222.484 285.66 222.612 285.804C222.74 285.94 222.804 286.112 222.804 286.32V290.664C222.804 291.328 222.66 291.916 222.372 292.428C222.092 292.94 221.704 293.34 221.208 293.628C220.712 293.916 220.136 294.06 219.48 294.06C218.824 294.06 218.244 293.916 217.74 293.628C217.244 293.34 216.852 292.94 216.564 292.428C216.284 291.916 216.144 291.328 216.144 290.664V286.32C216.144 286.112 216.216 285.94 216.36 285.804C216.504 285.66 216.688 285.588 216.912 285.588C217.096 285.588 217.26 285.66 217.404 285.804C217.556 285.94 217.632 286.112 217.632 286.32V290.664C217.632 291.064 217.716 291.412 217.884 291.708C218.06 291.996 218.288 292.22 218.568 292.38C218.856 292.54 219.16 292.62 219.48 292.62C219.824 292.62 220.144 292.54 220.44 292.38C220.736 292.22 220.976 291.996 221.16 291.708C221.344 291.412 221.436 291.064 221.436 290.664V286.32C221.436 286.112 221.496 285.94 221.616 285.804C221.736 285.66 221.9 285.588 222.108 285.588ZM227.572 287.484L224.98 293.58C224.924 293.732 224.836 293.852 224.716 293.94C224.604 294.02 224.48 294.06 224.344 294.06C224.128 294.06 223.968 294 223.864 293.88C223.76 293.76 223.708 293.612 223.708 293.436C223.708 293.364 223.72 293.288 223.744 293.208L226.732 286.032C226.796 285.872 226.892 285.748 227.02 285.66C227.156 285.572 227.3 285.536 227.452 285.552C227.596 285.552 227.728 285.596 227.848 285.684C227.976 285.764 228.068 285.88 228.124 286.032L231.076 293.064C231.116 293.168 231.136 293.264 231.136 293.352C231.136 293.568 231.064 293.74 230.92 293.868C230.784 293.996 230.632 294.06 230.464 294.06C230.32 294.06 230.188 294.016 230.068 293.928C229.956 293.84 229.868 293.72 229.804 293.568L227.224 287.556L227.572 287.484ZM225.352 292.116L226.012 290.736H229.252L229.48 292.116H225.352ZM233.016 294C232.792 294 232.592 293.932 232.416 293.796C232.24 293.652 232.152 293.476 232.152 293.268V286.332C232.152 286.124 232.22 285.952 232.356 285.816C232.5 285.672 232.676 285.6 232.884 285.6H236.34C236.756 285.6 237.144 285.712 237.504 285.936C237.872 286.152 238.168 286.456 238.392 286.848C238.616 287.232 238.728 287.676 238.728 288.18C238.728 288.484 238.664 288.78 238.536 289.068C238.416 289.356 238.248 289.616 238.032 289.848C237.824 290.08 237.588 290.26 237.324 290.388L237.336 290.112C237.56 290.232 237.744 290.376 237.888 290.544C238.04 290.704 238.156 290.88 238.236 291.072C238.324 291.256 238.376 291.456 238.392 291.672C238.424 291.872 238.444 292.048 238.452 292.2C238.468 292.352 238.492 292.48 238.524 292.584C238.564 292.688 238.636 292.768 238.74 292.824C238.916 292.928 239.024 293.08 239.064 293.28C239.112 293.472 239.068 293.644 238.932 293.796C238.844 293.9 238.732 293.968 238.596 294C238.46 294.024 238.324 294.024 238.188 294C238.052 293.968 237.94 293.928 237.852 293.88C237.716 293.8 237.58 293.684 237.444 293.532C237.308 293.372 237.196 293.16 237.108 292.896C237.028 292.632 236.988 292.292 236.988 291.876C236.988 291.74 236.964 291.616 236.916 291.504C236.868 291.384 236.8 291.284 236.712 291.204C236.624 291.116 236.512 291.052 236.376 291.012C236.24 290.964 236.08 290.94 235.896 290.94H233.472L233.652 290.664V293.268C233.652 293.476 233.596 293.652 233.484 293.796C233.372 293.932 233.216 294 233.016 294ZM233.484 289.704H236.28C236.424 289.704 236.564 289.64 236.7 289.512C236.836 289.376 236.948 289.196 237.036 288.972C237.124 288.74 237.168 288.488 237.168 288.216C237.168 287.864 237.072 287.572 236.88 287.34C236.696 287.1 236.496 286.98 236.28 286.98H233.508L233.652 286.596V289.992L233.484 289.704ZM245.508 285.564C245.692 285.564 245.856 285.636 246 285.78C246.152 285.916 246.228 286.092 246.228 286.308C246.228 286.38 246.216 286.456 246.192 286.536C246.176 286.608 246.144 286.68 246.096 286.752L243.372 290.652L243.588 289.824V293.268C243.588 293.476 243.516 293.652 243.372 293.796C243.236 293.932 243.076 294 242.892 294C242.692 294 242.52 293.932 242.376 293.796C242.24 293.652 242.172 293.476 242.172 293.268V289.92L242.268 290.304L239.676 286.86C239.596 286.756 239.54 286.656 239.508 286.56C239.476 286.464 239.46 286.376 239.46 286.296C239.46 286.08 239.544 285.904 239.712 285.768C239.88 285.632 240.052 285.564 240.228 285.564C240.452 285.564 240.648 285.676 240.816 285.9L243.12 289.08L242.784 289.032L244.908 285.924C245.076 285.684 245.276 285.564 245.508 285.564Z" fill="#182025" fill-opacity="0.9"/>
<path d="M311.773 285.588C311.885 285.588 312.001 285.62 312.121 285.684C312.249 285.74 312.345 285.816 312.409 285.912L315.325 290.4L314.725 290.376L317.713 285.912C317.865 285.696 318.061 285.588 318.301 285.588C318.493 285.588 318.665 285.656 318.817 285.792C318.969 285.928 319.045 286.104 319.045 286.32V293.268C319.045 293.476 318.977 293.652 318.841 293.796C318.705 293.932 318.525 294 318.301 294C318.077 294 317.893 293.932 317.749 293.796C317.613 293.652 317.545 293.476 317.545 293.268V287.616L318.013 287.724L315.565 291.456C315.493 291.544 315.401 291.62 315.289 291.684C315.185 291.748 315.077 291.776 314.965 291.768C314.861 291.776 314.753 291.748 314.641 291.684C314.537 291.62 314.449 291.544 314.377 291.456L312.085 287.832L312.397 287.196V293.268C312.397 293.476 312.333 293.652 312.205 293.796C312.077 293.932 311.909 294 311.701 294C311.501 294 311.337 293.932 311.209 293.796C311.081 293.652 311.017 293.476 311.017 293.268V286.32C311.017 286.12 311.089 285.948 311.233 285.804C311.385 285.66 311.565 285.588 311.773 285.588ZM323.933 287.484L321.341 293.58C321.285 293.732 321.197 293.852 321.077 293.94C320.965 294.02 320.841 294.06 320.705 294.06C320.489 294.06 320.329 294 320.225 293.88C320.121 293.76 320.069 293.612 320.069 293.436C320.069 293.364 320.081 293.288 320.105 293.208L323.093 286.032C323.157 285.872 323.253 285.748 323.381 285.66C323.517 285.572 323.661 285.536 323.813 285.552C323.957 285.552 324.089 285.596 324.209 285.684C324.337 285.764 324.429 285.88 324.485 286.032L327.437 293.064C327.477 293.168 327.497 293.264 327.497 293.352C327.497 293.568 327.425 293.74 327.281 293.868C327.145 293.996 326.993 294.06 326.825 294.06C326.681 294.06 326.549 294.016 326.429 293.928C326.317 293.84 326.229 293.72 326.165 293.568L323.585 287.556L323.933 287.484ZM321.713 292.116L322.373 290.736H325.613L325.841 292.116H321.713ZM329.377 294C329.153 294 328.953 293.932 328.777 293.796C328.601 293.652 328.513 293.476 328.513 293.268V286.332C328.513 286.124 328.581 285.952 328.717 285.816C328.861 285.672 329.037 285.6 329.245 285.6H332.701C333.117 285.6 333.505 285.712 333.865 285.936C334.233 286.152 334.529 286.456 334.753 286.848C334.977 287.232 335.089 287.676 335.089 288.18C335.089 288.484 335.025 288.78 334.897 289.068C334.777 289.356 334.609 289.616 334.393 289.848C334.185 290.08 333.949 290.26 333.685 290.388L333.697 290.112C333.921 290.232 334.105 290.376 334.249 290.544C334.401 290.704 334.517 290.88 334.597 291.072C334.685 291.256 334.737 291.456 334.753 291.672C334.785 291.872 334.805 292.048 334.813 292.2C334.829 292.352 334.853 292.48 334.885 292.584C334.925 292.688 334.997 292.768 335.101 292.824C335.277 292.928 335.385 293.08 335.425 293.28C335.473 293.472 335.429 293.644 335.293 293.796C335.205 293.9 335.093 293.968 334.957 294C334.821 294.024 334.685 294.024 334.549 294C334.413 293.968 334.301 293.928 334.213 293.88C334.077 293.8 333.941 293.684 333.805 293.532C333.669 293.372 333.557 293.16 333.469 292.896C333.389 292.632 333.349 292.292 333.349 291.876C333.349 291.74 333.325 291.616 333.277 291.504C333.229 291.384 333.161 291.284 333.073 291.204C332.985 291.116 332.873 291.052 332.737 291.012C332.601 290.964 332.441 290.94 332.257 290.94H329.833L330.013 290.664V293.268C330.013 293.476 329.957 293.652 329.845 293.796C329.733 293.932 329.577 294 329.377 294ZM329.845 289.704H332.641C332.785 289.704 332.925 289.64 333.061 289.512C333.197 289.376 333.309 289.196 333.397 288.972C333.485 288.74 333.529 288.488 333.529 288.216C333.529 287.864 333.433 287.572 333.241 287.34C333.057 287.1 332.857 286.98 332.641 286.98H329.869L330.013 286.596V289.992L329.845 289.704ZM342.514 286.008C342.722 286.112 342.842 286.276 342.874 286.5C342.914 286.724 342.858 286.928 342.706 287.112C342.602 287.256 342.466 287.336 342.298 287.352C342.138 287.368 341.974 287.336 341.806 287.256C341.614 287.168 341.41 287.1 341.194 287.052C340.986 287.004 340.766 286.98 340.534 286.98C340.102 286.98 339.714 287.048 339.37 287.184C339.034 287.32 338.746 287.516 338.506 287.772C338.266 288.02 338.082 288.316 337.954 288.66C337.834 289.004 337.774 289.384 337.774 289.8C337.774 290.288 337.842 290.712 337.978 291.072C338.122 291.432 338.318 291.732 338.566 291.972C338.814 292.212 339.106 292.392 339.442 292.512C339.778 292.624 340.142 292.68 340.534 292.68C340.75 292.68 340.966 292.66 341.182 292.62C341.398 292.58 341.606 292.508 341.806 292.404C341.974 292.324 342.138 292.296 342.298 292.32C342.466 292.344 342.606 292.428 342.718 292.572C342.878 292.772 342.934 292.98 342.886 293.196C342.846 293.404 342.726 293.556 342.526 293.652C342.318 293.756 342.102 293.844 341.878 293.916C341.662 293.98 341.442 294.028 341.218 294.06C340.994 294.1 340.766 294.12 340.534 294.12C339.958 294.12 339.41 294.028 338.89 293.844C338.378 293.66 337.918 293.388 337.51 293.028C337.11 292.668 336.794 292.22 336.562 291.684C336.33 291.14 336.214 290.512 336.214 289.8C336.214 289.184 336.318 288.616 336.526 288.096C336.742 287.576 337.042 287.128 337.426 286.752C337.818 286.368 338.278 286.072 338.806 285.864C339.334 285.648 339.91 285.54 340.534 285.54C340.886 285.54 341.23 285.58 341.566 285.66C341.902 285.74 342.218 285.856 342.514 286.008ZM344.926 285.6C345.118 285.6 345.286 285.672 345.43 285.816C345.582 285.952 345.658 286.124 345.658 286.332V293.268C345.658 293.476 345.582 293.652 345.43 293.796C345.278 293.932 345.102 294 344.902 294C344.678 294 344.498 293.932 344.362 293.796C344.226 293.652 344.158 293.476 344.158 293.268V286.332C344.158 286.124 344.23 285.952 344.374 285.816C344.518 285.672 344.702 285.6 344.926 285.6ZM350.242 285.6C350.466 285.6 350.646 285.672 350.782 285.816C350.918 285.952 350.986 286.124 350.986 286.332V293.268C350.986 293.476 350.914 293.652 350.77 293.796C350.634 293.932 350.45 294 350.218 294C350.026 294 349.854 293.932 349.702 293.796C349.558 293.652 349.486 293.476 349.486 293.268V286.332C349.486 286.124 349.562 285.952 349.714 285.816C349.866 285.672 350.042 285.6 350.242 285.6ZM344.89 289.092H350.242V290.472H344.89V289.092Z" fill="#182025" fill-opacity="0.9"/>
<path d="M433.396 287.484L430.804 293.58C430.748 293.732 430.66 293.852 430.54 293.94C430.428 294.02 430.304 294.06 430.168 294.06C429.952 294.06 429.792 294 429.688 293.88C429.584 293.76 429.532 293.612 429.532 293.436C429.532 293.364 429.544 293.288 429.568 293.208L432.556 286.032C432.62 285.872 432.716 285.748 432.844 285.66C432.98 285.572 433.124 285.536 433.276 285.552C433.42 285.552 433.552 285.596 433.672 285.684C433.8 285.764 433.892 285.88 433.948 286.032L436.9 293.064C436.94 293.168 436.96 293.264 436.96 293.352C436.96 293.568 436.888 293.74 436.744 293.868C436.608 293.996 436.456 294.06 436.288 294.06C436.144 294.06 436.012 294.016 435.892 293.928C435.78 293.84 435.692 293.72 435.628 293.568L433.048 287.556L433.396 287.484ZM431.176 292.116L431.836 290.736H435.076L435.304 292.116H431.176ZM441.444 285.6C441.86 285.6 442.248 285.72 442.608 285.96C442.976 286.2 443.272 286.524 443.496 286.932C443.72 287.34 443.832 287.796 443.832 288.3C443.832 288.796 443.72 289.248 443.496 289.656C443.272 290.064 442.976 290.392 442.608 290.64C442.248 290.88 441.86 291 441.444 291H439.236L439.356 290.784V293.268C439.356 293.476 439.292 293.652 439.164 293.796C439.036 293.932 438.868 294 438.66 294C438.46 294 438.296 293.932 438.168 293.796C438.04 293.652 437.976 293.476 437.976 293.268V286.332C437.976 286.124 438.044 285.952 438.18 285.816C438.324 285.672 438.5 285.6 438.708 285.6H441.444ZM441.444 289.632C441.596 289.632 441.744 289.568 441.888 289.44C442.032 289.312 442.152 289.148 442.248 288.948C442.344 288.74 442.392 288.524 442.392 288.3C442.392 288.068 442.344 287.852 442.248 287.652C442.152 287.452 442.032 287.292 441.888 287.172C441.744 287.044 441.596 286.98 441.444 286.98H439.212L439.356 286.764V289.824L439.224 289.632H441.444ZM446.071 294C445.847 294 445.647 293.932 445.471 293.796C445.295 293.652 445.207 293.476 445.207 293.268V286.332C445.207 286.124 445.275 285.952 445.411 285.816C445.555 285.672 445.731 285.6 445.939 285.6H449.395C449.811 285.6 450.199 285.712 450.559 285.936C450.927 286.152 451.223 286.456 451.447 286.848C451.671 287.232 451.783 287.676 451.783 288.18C451.783 288.484 451.719 288.78 451.591 289.068C451.471 289.356 451.303 289.616 451.087 289.848C450.879 290.08 450.643 290.26 450.379 290.388L450.391 290.112C450.615 290.232 450.799 290.376 450.943 290.544C451.095 290.704 451.211 290.88 451.291 291.072C451.379 291.256 451.431 291.456 451.447 291.672C451.479 291.872 451.499 292.048 451.507 292.2C451.523 292.352 451.547 292.48 451.579 292.584C451.619 292.688 451.691 292.768 451.795 292.824C451.971 292.928 452.079 293.08 452.119 293.28C452.167 293.472 452.123 293.644 451.987 293.796C451.899 293.9 451.787 293.968 451.651 294C451.515 294.024 451.379 294.024 451.243 294C451.107 293.968 450.995 293.928 450.907 293.88C450.771 293.8 450.635 293.684 450.499 293.532C450.363 293.372 450.251 293.16 450.163 292.896C450.083 292.632 450.043 292.292 450.043 291.876C450.043 291.74 450.019 291.616 449.971 291.504C449.923 291.384 449.855 291.284 449.767 291.204C449.679 291.116 449.567 291.052 449.431 291.012C449.295 290.964 449.135 290.94 448.951 290.94H446.527L446.707 290.664V293.268C446.707 293.476 446.651 293.652 446.539 293.796C446.427 293.932 446.271 294 446.071 294ZM446.539 289.704H449.335C449.479 289.704 449.619 289.64 449.755 289.512C449.891 289.376 450.003 289.196 450.091 288.972C450.179 288.74 450.223 288.488 450.223 288.216C450.223 287.864 450.127 287.572 449.935 287.34C449.751 287.1 449.551 286.98 449.335 286.98H446.563L446.707 286.596V289.992L446.539 289.704ZM454.945 293.268C454.945 293.476 454.869 293.652 454.717 293.796C454.565 293.932 454.389 294 454.189 294C453.965 294 453.785 293.932 453.649 293.796C453.513 293.652 453.445 293.476 453.445 293.268V286.332C453.445 286.124 453.517 285.952 453.661 285.816C453.805 285.672 453.989 285.6 454.213 285.6C454.405 285.6 454.573 285.672 454.717 285.816C454.869 285.952 454.945 286.124 454.945 286.332V293.268ZM461.382 292.596C461.59 292.596 461.762 292.664 461.898 292.8C462.042 292.928 462.114 293.096 462.114 293.304C462.114 293.504 462.042 293.672 461.898 293.808C461.762 293.936 461.59 294 461.382 294H457.482C457.274 294 457.098 293.932 456.954 293.796C456.818 293.652 456.75 293.476 456.75 293.268V286.332C456.75 286.124 456.822 285.952 456.966 285.816C457.11 285.672 457.294 285.6 457.518 285.6C457.71 285.6 457.878 285.672 458.022 285.816C458.174 285.952 458.25 286.124 458.25 286.332V292.8L457.986 292.596H461.382Z" fill="#182025" fill-opacity="0.9"/>
<path d="M550.592 285.588C550.704 285.588 550.82 285.62 550.94 285.684C551.068 285.74 551.164 285.816 551.228 285.912L554.144 290.4L553.544 290.376L556.532 285.912C556.684 285.696 556.88 285.588 557.12 285.588C557.312 285.588 557.484 285.656 557.636 285.792C557.788 285.928 557.864 286.104 557.864 286.32V293.268C557.864 293.476 557.796 293.652 557.66 293.796C557.524 293.932 557.344 294 557.12 294C556.896 294 556.712 293.932 556.568 293.796C556.432 293.652 556.364 293.476 556.364 293.268V287.616L556.832 287.724L554.384 291.456C554.312 291.544 554.22 291.62 554.108 291.684C554.004 291.748 553.896 291.776 553.784 291.768C553.68 291.776 553.572 291.748 553.46 291.684C553.356 291.62 553.268 291.544 553.196 291.456L550.904 287.832L551.216 287.196V293.268C551.216 293.476 551.152 293.652 551.024 293.796C550.896 293.932 550.728 294 550.52 294C550.32 294 550.156 293.932 550.028 293.796C549.9 293.652 549.836 293.476 549.836 293.268V286.32C549.836 286.12 549.908 285.948 550.052 285.804C550.204 285.66 550.384 285.588 550.592 285.588ZM562.752 287.484L560.16 293.58C560.104 293.732 560.016 293.852 559.896 293.94C559.784 294.02 559.66 294.06 559.524 294.06C559.308 294.06 559.148 294 559.044 293.88C558.94 293.76 558.888 293.612 558.888 293.436C558.888 293.364 558.9 293.288 558.924 293.208L561.912 286.032C561.976 285.872 562.072 285.748 562.2 285.66C562.336 285.572 562.48 285.536 562.632 285.552C562.776 285.552 562.908 285.596 563.028 285.684C563.156 285.764 563.248 285.88 563.304 286.032L566.256 293.064C566.296 293.168 566.316 293.264 566.316 293.352C566.316 293.568 566.244 293.74 566.1 293.868C565.964 293.996 565.812 294.06 565.644 294.06C565.5 294.06 565.368 294.016 565.248 293.928C565.136 293.84 565.048 293.72 564.984 293.568L562.404 287.556L562.752 287.484ZM560.532 292.116L561.192 290.736H564.432L564.66 292.116H560.532ZM572.168 285.564C572.352 285.564 572.516 285.636 572.66 285.78C572.812 285.916 572.888 286.092 572.888 286.308C572.888 286.38 572.876 286.456 572.852 286.536C572.836 286.608 572.804 286.68 572.756 286.752L570.032 290.652L570.248 289.824V293.268C570.248 293.476 570.176 293.652 570.032 293.796C569.896 293.932 569.736 294 569.552 294C569.352 294 569.18 293.932 569.036 293.796C568.9 293.652 568.832 293.476 568.832 293.268V289.92L568.928 290.304L566.336 286.86C566.256 286.756 566.2 286.656 566.168 286.56C566.136 286.464 566.12 286.376 566.12 286.296C566.12 286.08 566.204 285.904 566.372 285.768C566.54 285.632 566.712 285.564 566.888 285.564C567.112 285.564 567.308 285.676 567.476 285.9L569.78 289.08L569.444 289.032L571.568 285.924C571.736 285.684 571.936 285.564 572.168 285.564Z" fill="#182025" fill-opacity="0.9"/>
<path d="M663.469 294.12C663.013 294.12 662.589 294.028 662.197 293.844C661.805 293.66 661.485 293.396 661.237 293.052C661.141 292.908 661.093 292.768 661.093 292.632C661.093 292.432 661.169 292.264 661.321 292.128C661.481 291.992 661.637 291.924 661.789 291.924C661.909 291.924 662.025 291.96 662.137 292.032C662.257 292.104 662.365 292.188 662.461 292.284C662.621 292.428 662.777 292.532 662.929 292.596C663.089 292.652 663.269 292.68 663.469 292.68C663.709 292.68 663.933 292.62 664.141 292.5C664.349 292.38 664.517 292.22 664.645 292.02C664.773 291.82 664.837 291.604 664.837 291.372V286.332C664.837 286.124 664.913 285.952 665.065 285.816C665.217 285.672 665.393 285.6 665.593 285.6C665.817 285.6 665.997 285.672 666.133 285.816C666.269 285.952 666.337 286.124 666.337 286.332V291.372C666.337 291.86 666.209 292.312 665.953 292.728C665.697 293.144 665.353 293.48 664.921 293.736C664.489 293.992 664.005 294.12 663.469 294.12ZM674.098 285.588C674.306 285.588 674.474 285.66 674.602 285.804C674.73 285.94 674.794 286.112 674.794 286.32V290.664C674.794 291.328 674.65 291.916 674.362 292.428C674.082 292.94 673.694 293.34 673.198 293.628C672.702 293.916 672.126 294.06 671.47 294.06C670.814 294.06 670.234 293.916 669.73 293.628C669.234 293.34 668.842 292.94 668.554 292.428C668.274 291.916 668.134 291.328 668.134 290.664V286.32C668.134 286.112 668.206 285.94 668.35 285.804C668.494 285.66 668.678 285.588 668.902 285.588C669.086 285.588 669.25 285.66 669.394 285.804C669.546 285.94 669.622 286.112 669.622 286.32V290.664C669.622 291.064 669.706 291.412 669.874 291.708C670.05 291.996 670.278 292.22 670.558 292.38C670.846 292.54 671.15 292.62 671.47 292.62C671.814 292.62 672.134 292.54 672.43 292.38C672.726 292.22 672.966 291.996 673.15 291.708C673.334 291.412 673.426 291.064 673.426 290.664V286.32C673.426 286.112 673.486 285.94 673.606 285.804C673.726 285.66 673.89 285.588 674.098 285.588ZM682.967 285.6C683.159 285.6 683.315 285.664 683.435 285.792C683.555 285.92 683.615 286.08 683.615 286.272V293.268C683.615 293.476 683.543 293.652 683.399 293.796C683.263 293.932 683.091 294 682.883 294C682.779 294 682.671 293.984 682.559 293.952C682.455 293.912 682.375 293.86 682.319 293.796L677.603 287.808L677.915 287.616V293.328C677.915 293.52 677.851 293.68 677.723 293.808C677.603 293.936 677.443 294 677.243 294C677.051 294 676.895 293.936 676.775 293.808C676.655 293.68 676.595 293.52 676.595 293.328V286.332C676.595 286.124 676.663 285.952 676.799 285.816C676.943 285.672 677.119 285.6 677.327 285.6C677.439 285.6 677.555 285.624 677.675 285.672C677.795 285.712 677.883 285.776 677.939 285.864L682.511 291.696L682.307 291.84V286.272C682.307 286.08 682.367 285.92 682.487 285.792C682.607 285.664 682.767 285.6 682.967 285.6ZM686.152 285.6H690.172C690.38 285.6 690.552 285.668 690.688 285.804C690.832 285.932 690.904 286.1 690.904 286.308C690.904 286.508 690.832 286.672 690.688 286.8C690.552 286.92 690.38 286.98 690.172 286.98H686.812L686.92 286.776V289.116L686.824 289.02H689.632C689.84 289.02 690.012 289.088 690.148 289.224C690.292 289.352 690.364 289.52 690.364 289.728C690.364 289.928 690.292 290.092 690.148 290.22C690.012 290.34 689.84 290.4 689.632 290.4H686.86L686.92 290.304V292.728L686.824 292.62H690.172C690.38 292.62 690.552 292.692 690.688 292.836C690.832 292.972 690.904 293.132 690.904 293.316C690.904 293.516 690.832 293.68 690.688 293.808C690.552 293.936 690.38 294 690.172 294H686.152C685.944 294 685.768 293.932 685.624 293.796C685.488 293.652 685.42 293.476 685.42 293.268V286.332C685.42 286.124 685.488 285.952 685.624 285.816C685.768 285.672 685.944 285.6 686.152 285.6Z" fill="#182025" fill-opacity="0.9"/>
</g>
<path d="M62.5148 21.8C64.1788 21.8 65.4181 22.19 66.2328 22.97C67.0474 23.75 67.4548 24.9027 67.4548 26.428C67.4548 27.2427 67.2554 27.962 66.8568 28.586C66.4581 29.1927 65.8688 29.6693 65.0888 30.016C64.3088 30.3453 63.3468 30.51 62.2028 30.51L62.3068 29.34C62.8441 29.34 63.4594 29.418 64.1528 29.574C64.8461 29.7127 65.5134 29.9727 66.1548 30.354C66.8134 30.718 67.3508 31.238 67.7668 31.914C68.2001 32.5727 68.4168 33.422 68.4168 34.462C68.4168 35.606 68.2261 36.542 67.8448 37.27C67.4808 37.998 66.9954 38.5613 66.3888 38.96C65.7821 39.3587 65.1321 39.636 64.4388 39.792C63.7454 39.9307 63.0781 40 62.4368 40H55.9628C55.5121 40 55.1308 39.8527 54.8188 39.558C54.5241 39.246 54.3768 38.8647 54.3768 38.414V23.386C54.3768 22.9353 54.5241 22.5627 54.8188 22.268C55.1308 21.956 55.5121 21.8 55.9628 21.8H62.5148ZM62.0468 24.868H57.4188L57.7568 24.452V29.158L57.4448 28.924H62.1248C62.6274 28.924 63.0781 28.7593 63.4768 28.43C63.8754 28.1007 64.0748 27.624 64.0748 27C64.0748 26.2547 63.8841 25.7173 63.5028 25.388C63.1388 25.0413 62.6534 24.868 62.0468 24.868ZM62.2548 31.992H57.5228L57.7568 31.784V37.27L57.4968 37.01H62.4368C63.2341 37.01 63.8668 36.802 64.3348 36.386C64.8028 35.9527 65.0368 35.3113 65.0368 34.462C65.0368 33.682 64.8808 33.1187 64.5688 32.772C64.2568 32.4253 63.8841 32.2087 63.4508 32.122C63.0174 32.0353 62.6188 31.992 62.2548 31.992ZM78.0959 25.882L72.4799 39.09C72.3585 39.4193 72.1679 39.6793 71.9079 39.87C71.6652 40.0433 71.3965 40.13 71.1019 40.13C70.6339 40.13 70.2872 40 70.0619 39.74C69.8365 39.48 69.7239 39.1593 69.7239 38.778C69.7239 38.622 69.7499 38.4573 69.8019 38.284L76.2759 22.736C76.4145 22.3893 76.6225 22.1207 76.8999 21.93C77.1945 21.7393 77.5065 21.6613 77.8359 21.696C78.1479 21.696 78.4339 21.7913 78.6939 21.982C78.9712 22.1553 79.1705 22.4067 79.2919 22.736L85.6879 37.972C85.7745 38.1973 85.8179 38.4053 85.8179 38.596C85.8179 39.064 85.6619 39.4367 85.3499 39.714C85.0552 39.9913 84.7259 40.13 84.3619 40.13C84.0499 40.13 83.7639 40.0347 83.5039 39.844C83.2612 39.6533 83.0705 39.3933 82.9319 39.064L77.3419 26.038L78.0959 25.882ZM73.2859 35.918L74.7159 32.928H81.7359L82.2299 35.918H73.2859ZM98.0553 36.958C98.506 36.958 98.8787 37.1053 99.1733 37.4C99.4853 37.6773 99.6413 38.0413 99.6413 38.492C99.6413 38.9253 99.4853 39.2893 99.1733 39.584C98.8787 39.8613 98.506 40 98.0553 40H89.6053C89.1547 40 88.7733 39.8527 88.4613 39.558C88.1667 39.246 88.0193 38.8647 88.0193 38.414V23.386C88.0193 22.9353 88.1753 22.5627 88.4873 22.268C88.7993 21.956 89.198 21.8 89.6833 21.8C90.0993 21.8 90.4633 21.956 90.7753 22.268C91.1047 22.5627 91.2693 22.9353 91.2693 23.386V37.4L90.6973 36.958H98.0553ZM109.301 25.882L103.685 39.09C103.564 39.4193 103.373 39.6793 103.113 39.87C102.87 40.0433 102.602 40.13 102.307 40.13C101.839 40.13 101.492 40 101.267 39.74C101.042 39.48 100.929 39.1593 100.929 38.778C100.929 38.622 100.955 38.4573 101.007 38.284L107.481 22.736C107.62 22.3893 107.828 22.1207 108.105 21.93C108.4 21.7393 108.712 21.6613 109.041 21.696C109.353 21.696 109.639 21.7913 109.899 21.982C110.176 22.1553 110.376 22.4067 110.497 22.736L116.893 37.972C116.98 38.1973 117.023 38.4053 117.023 38.596C117.023 39.064 116.867 39.4367 116.555 39.714C116.26 39.9913 115.931 40.13 115.567 40.13C115.255 40.13 114.969 40.0347 114.709 39.844C114.466 39.6533 114.276 39.3933 114.137 39.064L108.547 26.038L109.301 25.882ZM104.491 35.918L105.921 32.928H112.941L113.435 35.918H104.491ZM133.03 21.8C133.446 21.8 133.784 21.9387 134.044 22.216C134.304 22.4933 134.434 22.84 134.434 23.256V38.414C134.434 38.8647 134.278 39.246 133.966 39.558C133.672 39.8527 133.299 40 132.848 40C132.623 40 132.389 39.9653 132.146 39.896C131.921 39.8093 131.748 39.6967 131.626 39.558L121.408 26.584L122.084 26.168V38.544C122.084 38.96 121.946 39.3067 121.668 39.584C121.408 39.8613 121.062 40 120.628 40C120.212 40 119.874 39.8613 119.614 39.584C119.354 39.3067 119.224 38.96 119.224 38.544V23.386C119.224 22.9353 119.372 22.5627 119.666 22.268C119.978 21.956 120.36 21.8 120.81 21.8C121.053 21.8 121.304 21.852 121.564 21.956C121.824 22.0427 122.015 22.1813 122.136 22.372L132.042 35.008L131.6 35.32V23.256C131.6 22.84 131.73 22.4933 131.99 22.216C132.25 21.9387 132.597 21.8 133.03 21.8ZM151.084 22.684C151.534 22.9093 151.794 23.2647 151.864 23.75C151.95 24.2353 151.829 24.6773 151.5 25.076C151.274 25.388 150.98 25.5613 150.616 25.596C150.269 25.6307 149.914 25.5613 149.55 25.388C149.134 25.1973 148.692 25.05 148.224 24.946C147.773 24.842 147.296 24.79 146.794 24.79C145.858 24.79 145.017 24.9373 144.272 25.232C143.544 25.5267 142.92 25.9513 142.4 26.506C141.88 27.0433 141.481 27.6847 141.204 28.43C140.944 29.1753 140.814 29.9987 140.814 30.9C140.814 31.9573 140.961 32.876 141.256 33.656C141.568 34.436 141.992 35.086 142.53 35.606C143.067 36.126 143.7 36.516 144.428 36.776C145.156 37.0187 145.944 37.14 146.794 37.14C147.262 37.14 147.73 37.0967 148.198 37.01C148.666 36.9233 149.116 36.7673 149.55 36.542C149.914 36.3687 150.269 36.308 150.616 36.36C150.98 36.412 151.283 36.594 151.526 36.906C151.872 37.3393 151.994 37.79 151.89 38.258C151.803 38.7087 151.543 39.038 151.11 39.246C150.659 39.4713 150.191 39.662 149.706 39.818C149.238 39.9567 148.761 40.0607 148.276 40.13C147.79 40.2167 147.296 40.26 146.794 40.26C145.546 40.26 144.358 40.0607 143.232 39.662C142.122 39.2633 141.126 38.674 140.242 37.894C139.375 37.114 138.69 36.1433 138.188 34.982C137.685 33.8033 137.434 32.4427 137.434 30.9C137.434 29.5653 137.659 28.3347 138.11 27.208C138.578 26.0813 139.228 25.1107 140.06 24.296C140.909 23.464 141.906 22.8227 143.05 22.372C144.194 21.904 145.442 21.67 146.794 21.67C147.556 21.67 148.302 21.7567 149.03 21.93C149.758 22.1033 150.442 22.3547 151.084 22.684ZM156.23 21.8H164.94C165.391 21.8 165.764 21.9473 166.058 22.242C166.37 22.5193 166.526 22.8833 166.526 23.334C166.526 23.7673 166.37 24.1227 166.058 24.4C165.764 24.66 165.391 24.79 164.94 24.79H157.66L157.894 24.348V29.418L157.686 29.21H163.77C164.221 29.21 164.594 29.3573 164.888 29.652C165.2 29.9293 165.356 30.2933 165.356 30.744C165.356 31.1773 165.2 31.5327 164.888 31.81C164.594 32.07 164.221 32.2 163.77 32.2H157.764L157.894 31.992V37.244L157.686 37.01H164.94C165.391 37.01 165.764 37.166 166.058 37.478C166.37 37.7727 166.526 38.1193 166.526 38.518C166.526 38.9513 166.37 39.3067 166.058 39.584C165.764 39.8613 165.391 40 164.94 40H156.23C155.78 40 155.398 39.8527 155.086 39.558C154.792 39.246 154.644 38.8647 154.644 38.414V23.386C154.644 22.9353 154.792 22.5627 155.086 22.268C155.398 21.956 155.78 21.8 156.23 21.8Z" fill="#182025"/>
</g>
<defs>
<clipPath id="clip0_1_104">
<rect width="734" height="309" rx="15" fill="white"/>
</clipPath>
<clipPath id="clip1_1_104">
<rect width="656" height="17" fill="white" transform="translate(60 282)"/>
</clipPath>
</defs>
</svg>
